<?xml version="1.0" encoding="UTF-8" standalone="no"?>
<!DOCTYPE svg PUBLIC "-//W3C//DTD SVG 1.1//EN"
 "http://www.w3.org/Graphics/SVG/1.1/DTD/svg11.dtd">
<!-- Generated by graphviz version 2.40.1 (20161225.0304)
 -->
<!-- Title: snakemake_dag Pages: 1 -->
<svg width="196pt" height="260pt"
 viewBox="0.00 0.00 196.00 260.00" xmlns="http://www.w3.org/2000/svg" xmlns:xlink="http://www.w3.org/1999/xlink">
<g id="graph0" class="graph" transform="scale(1 1) rotate(0) translate(4 256)">
<title>snakemake_dag</title>
<polygon fill="#ffffff" stroke="transparent" points="-4,4 -4,-256 192,-256 192,4 -4,4"/>
<!-- 0 -->
<g id="node1" class="node">
<title>0</title>
<path fill="none" stroke="#56c1d8" stroke-width="2" d="M84.5,-36C84.5,-36 54.5,-36 54.5,-36 48.5,-36 42.5,-30 42.5,-24 42.5,-24 42.5,-12 42.5,-12 42.5,-6 48.5,0 54.5,0 54.5,0 84.5,0 84.5,0 90.5,0 96.5,-6 96.5,-12 96.5,-12 96.5,-24 96.5,-24 96.5,-30 90.5,-36 84.5,-36"/>
<text text-anchor="middle" x="69.5" y="-15.5" font-family="sans" font-size="10.00" fill="#000000">all</text>
</g>
<!-- 1 -->
<g id="node2" class="node">
<title>1</title>
<path fill="none" stroke="#d85656" stroke-width="2" d="M84.5,-108C84.5,-108 54.5,-108 54.5,-108 48.5,-108 42.5,-102 42.5,-96 42.5,-96 42.5,-84 42.5,-84 42.5,-78 48.5,-72 54.5,-72 54.5,-72 84.5,-72 84.5,-72 90.5,-72 96.5,-78 96.5,-84 96.5,-84 96.5,-96 96.5,-96 96.5,-102 90.5,-108 84.5,-108"/>
<text text-anchor="middle" x="69.5" y="-87.5" font-family="sans" font-size="10.00" fill="#000000">report</text>
</g>
<!-- 1&#45;&gt;0 -->
<g id="edge1" class="edge">
<title>1&#45;&gt;0</title>
<path fill="none" stroke="#c0c0c0" stroke-width="2" d="M69.5,-71.8314C69.5,-64.131 69.5,-54.9743 69.5,-46.4166"/>
<polygon fill="#c0c0c0" stroke="#c0c0c0" stroke-width="2" points="73.0001,-46.4132 69.5,-36.4133 66.0001,-46.4133 73.0001,-46.4132"/>
</g>
<!-- 2 -->
<g id="node3" class="node">
<title>2</title>
<path fill="none" stroke="#56d88a" stroke-width="2" stroke-dasharray="5,2" d="M97,-180C97,-180 42,-180 42,-180 36,-180 30,-174 30,-168 30,-168 30,-156 30,-156 30,-150 36,-144 42,-144 42,-144 97,-144 97,-144 103,-144 109,-150 109,-156 109,-156 109,-168 109,-168 109,-174 103,-180 97,-180"/>
<text text-anchor="middle" x="69.5" y="-159.5" font-family="sans" font-size="10.00" fill="#000000">ensembl_api</text>
</g>
<!-- 2&#45;&gt;1 -->
<g id="edge2" class="edge">
<title>2&#45;&gt;1</title>
<path fill="none" stroke="#c0c0c0" stroke-width="2" d="M69.5,-143.8314C69.5,-136.131 69.5,-126.9743 69.5,-118.4166"/>
<polygon fill="#c0c0c0" stroke="#c0c0c0" stroke-width="2" points="73.0001,-118.4132 69.5,-108.4133 66.0001,-118.4133 73.0001,-118.4132"/>
</g>
<!-- 3 -->
<g id="node4" class="node">
<title>3</title>
<path fill="none" stroke="#d8bc56" stroke-width="2" stroke-dasharray="5,2" d="M176,-180C176,-180 139,-180 139,-180 133,-180 127,-174 127,-168 127,-168 127,-156 127,-156 127,-150 133,-144 139,-144 139,-144 176,-144 176,-144 182,-144 188,-150 188,-156 188,-156 188,-168 188,-168 188,-174 182,-180 176,-180"/>
<text text-anchor="middle" x="157.5" y="-159.5" font-family="sans" font-size="10.00" fill="#000000">workflow</text>
</g>
<!-- 3&#45;&gt;1 -->
<g id="edge3" class="edge">
<title>3&#45;&gt;1</title>
<path fill="none" stroke="#c0c0c0" stroke-width="2" d="M135.2939,-143.8314C124.455,-134.9632 111.2556,-124.1637 99.5322,-114.5718"/>
<polygon fill="#c0c0c0" stroke="#c0c0c0" stroke-width="2" points="101.655,-111.7864 91.699,-108.1628 97.2223,-117.2041 101.655,-111.7864"/>
</g>
<!-- 4 -->
<g id="node5" class="node">
<title>4</title>
<path fill="none" stroke="#88d856" stroke-width="2" stroke-dasharray="5,2" d="M59,-252C59,-252 12,-252 12,-252 6,-252 0,-246 0,-240 0,-240 0,-228 0,-228 0,-222 6,-216 12,-216 12,-216 59,-216 59,-216 65,-216 71,-222 71,-228 71,-228 71,-240 71,-240 71,-246 65,-252 59,-252"/>
<text text-anchor="middle" x="35.5" y="-231.5" font-family="sans" font-size="10.00" fill="#000000">variant_api</text>
</g>
<!-- 4&#45;&gt;1 -->
<g id="edge4" class="edge">
<title>4&#45;&gt;1</title>
<path fill="none" stroke="#c0c0c0" stroke-width="2" d="M27.4092,-215.848C20.3223,-197.2588 12.4524,-167.7969 21.5,-144 25.5272,-133.4076 32.69,-123.5662 40.2737,-115.2649"/>
<polygon fill="#c0c0c0" stroke="#c0c0c0" stroke-width="2" points="42.7926,-117.695 47.2787,-108.0968 37.7862,-112.8025 42.7926,-117.695"/>
</g>
<!-- 4&#45;&gt;2 -->
<g id="edge5" class="edge">
<title>4&#45;&gt;2</title>
<path fill="none" stroke="#c0c0c0" stroke-width="2" d="M44.0796,-215.8314C47.8358,-207.8771 52.3257,-198.369 56.4798,-189.5723"/>
<polygon fill="#c0c0c0" stroke="#c0c0c0" stroke-width="2" points="59.6996,-190.9503 60.8048,-180.4133 53.3699,-187.9612 59.6996,-190.9503"/>
</g>
</g>
</svg>
